<svg xmlns="http://www.w3.org/2000/svg" viewBox="-16.5 0 377 377" role="img" aria-label="DirtBikeX">
  <defs>
    <linearGradient id="orangeXGradient" x1="0" y1="0" x2="1" y2="1">
      <stop offset="0%" stop-color="#ff4a16"/>
      <stop offset="48%" stop-color="#ff3a08"/>
      <stop offset="100%" stop-color="#df2100"/>
    </linearGradient>
  </defs>
  <path d="M330.0 7.0 L320.0 9.0 L308.0 6.0 L292.0 14.0 L288.0 13.0 L289.0 10.0 L283.0 13.0 L247.0 49.0 L243.0 50.0 L214.0 84.0 L224.0 77.0 L222.0 82.0 L203.0 102.0 L171.0 57.0 L166.0 54.0 L165.0 59.0 L151.0 46.0 L150.0 49.0 L145.0 47.0 L148.0 50.0 L143.0 53.0 L123.0 41.0 L129.0 48.0 L133.0 61.0 L128.0 60.0 L131.0 65.0 L129.0 68.0 L122.0 63.0 L132.0 76.0 L138.0 89.0 L140.0 87.0 L146.0 94.0 L145.0 97.0 L159.0 114.0 L173.0 138.0 L115.0 209.0 L107.0 223.0 L103.0 225.0 L108.0 217.0 L37.0 304.0 L30.0 315.0 L35.0 310.0 L40.0 311.0 L8.0 352.0 L18.0 347.0 L6.0 370.0 L48.0 324.0 L49.0 326.0 L38.0 339.0 L37.0 347.0 L32.0 353.0 L61.0 321.0 L74.0 311.0 L84.0 296.0 L162.0 209.0 L163.0 211.0 L104.0 285.0 L200.0 180.0 L238.0 227.0 L246.0 233.0 L241.0 226.0 L243.0 224.0 L256.0 238.0 L259.0 246.0 L260.0 244.0 L275.0 259.0 L271.0 254.0 L271.0 249.0 L262.0 238.0 L262.0 233.0 L276.0 249.0 L278.0 247.0 L286.0 256.0 L289.0 255.0 L304.0 270.0 L291.0 247.0 L297.0 250.0 L296.0 242.0 L307.0 250.0 L244.0 171.0 L242.0 164.0 L277.0 205.0 L229.0 139.0 L240.0 124.0 L251.0 115.0 L291.0 70.0 L298.0 59.0 L299.0 62.0 L313.0 50.0 L315.0 44.0 L305.0 48.0 L337.0 16.0 L330.0 16.0 Z" fill="url(#orangeXGradient)"/>
</svg>
