<svg xmlns="http://www.w3.org/2000/svg" width="887" height="423" viewBox="0 0 887 423" role="img" aria-label="DirtBikeX">
  <defs>
    <linearGradient id="orangeXGradient" gradientUnits="userSpaceOnUse" x1="529" y1="19" x2="860" y2="383">
      <stop offset="0%" stop-color="#ff4a16"/>
      <stop offset="48%" stop-color="#ff3a08"/>
      <stop offset="100%" stop-color="#df2100"/>
    </linearGradient>
  </defs>
  <g id="DirtBikeX-text-line-with-outline" fill-rule="evenodd" shape-rendering="geometricPrecision">
    <path id="black-outline-backplate" d="M 878.0 36.0 L 871.0 32.0 L 870.0 24.0 L 858.0 10.0 L 832.0 8.0 L 818.0 13.0 L 807.0 13.0 L 796.0 20.0 L 760.0 54.0 L 726.0 94.0 L 704.0 65.0 L 696.0 58.0 L 686.0 56.0 L 679.0 49.0 L 673.0 48.0 L 663.0 51.0 L 652.0 45.0 L 642.0 45.0 L 636.0 52.0 L 636.0 58.0 L 641.0 65.0 L 634.0 73.0 L 634.0 80.0 L 651.0 107.0 L 658.0 113.0 L 658.0 116.0 L 615.0 126.0 L 610.0 121.0 L 605.0 120.0 L 585.0 130.0 L 584.0 125.0 L 589.0 113.0 L 586.0 108.0 L 588.0 98.0 L 581.0 94.0 L 581.0 88.0 L 578.0 83.0 L 570.0 80.0 L 565.0 81.0 L 558.0 90.0 L 552.0 94.0 L 547.0 104.0 L 539.0 111.0 L 527.0 140.0 L 519.0 136.0 L 512.0 136.0 L 506.0 130.0 L 501.0 120.0 L 489.0 112.0 L 464.0 108.0 L 434.0 111.0 L 413.0 117.0 L 392.0 126.0 L 374.0 143.0 L 363.0 138.0 L 349.0 140.0 L 343.0 146.0 L 336.0 163.0 L 300.0 175.0 L 288.0 189.0 L 273.0 189.0 L 244.0 199.0 L 236.0 191.0 L 227.0 189.0 L 219.0 191.0 L 199.0 164.0 L 184.0 159.0 L 177.0 152.0 L 151.0 148.0 L 122.0 154.0 L 116.0 153.0 L 71.0 167.0 L 31.0 188.0 L 26.0 198.0 L 27.0 208.0 L 17.0 217.0 L 16.0 223.0 L 11.0 228.0 L 8.0 237.0 L 8.0 243.0 L 11.0 248.0 L 19.0 251.0 L 25.0 249.0 L 31.0 252.0 L 41.0 247.0 L 47.0 249.0 L 62.0 242.0 L 64.0 243.0 L 60.0 253.0 L 58.0 270.0 L 46.0 302.0 L 42.0 325.0 L 37.0 337.0 L 37.0 351.0 L 39.0 354.0 L 29.0 364.0 L 16.0 372.0 L 13.0 377.0 L 14.0 391.0 L 20.0 398.0 L 28.0 399.0 L 28.0 405.0 L 34.0 412.0 L 39.0 413.0 L 45.0 411.0 L 51.0 414.0 L 55.0 413.0 L 74.0 397.0 L 83.0 396.0 L 114.0 366.0 L 121.0 366.0 L 175.0 311.0 L 177.0 339.0 L 180.0 344.0 L 188.0 347.0 L 194.0 345.0 L 200.0 348.0 L 204.0 347.0 L 209.0 341.0 L 209.0 338.0 L 214.0 335.0 L 220.0 340.0 L 225.0 341.0 L 231.0 339.0 L 237.0 342.0 L 241.0 341.0 L 248.0 328.0 L 254.0 324.0 L 264.0 299.0 L 285.0 313.0 L 293.0 314.0 L 310.0 325.0 L 319.0 326.0 L 319.0 334.0 L 325.0 341.0 L 337.0 341.0 L 342.0 343.0 L 354.0 339.0 L 360.0 342.0 L 364.0 341.0 L 374.0 334.0 L 381.0 334.0 L 393.0 322.0 L 395.0 323.0 L 402.0 320.0 L 438.0 289.0 L 443.0 289.0 L 468.0 268.0 L 475.0 277.0 L 480.0 278.0 L 486.0 276.0 L 492.0 279.0 L 498.0 276.0 L 504.0 283.0 L 509.0 284.0 L 515.0 282.0 L 521.0 285.0 L 525.0 284.0 L 533.0 268.0 L 538.0 265.0 L 549.0 236.0 L 582.0 258.0 L 589.0 259.0 L 590.0 262.0 L 542.0 324.0 L 543.0 332.0 L 520.0 362.0 L 520.0 368.0 L 523.0 372.0 L 518.0 380.0 L 518.0 386.0 L 521.0 391.0 L 529.0 394.0 L 535.0 392.0 L 541.0 395.0 L 545.0 394.0 L 562.0 375.0 L 572.0 376.0 L 606.0 338.0 L 610.0 337.0 L 617.0 330.0 L 625.0 318.0 L 635.0 308.0 L 644.0 308.0 L 728.0 217.0 L 755.0 250.0 L 762.0 255.0 L 766.0 255.0 L 771.0 264.0 L 779.0 268.0 L 790.0 280.0 L 798.0 283.0 L 804.0 281.0 L 809.0 283.0 L 822.0 293.0 L 827.0 294.0 L 833.0 292.0 L 839.0 295.0 L 843.0 294.0 L 845.0 290.0 L 837.0 276.0 L 846.0 275.0 L 848.0 270.0 L 817.0 228.0 L 818.0 224.0 L 771.0 160.0 L 780.0 147.0 L 790.0 139.0 L 828.0 95.0 L 828.0 92.0 L 834.0 86.0 L 839.0 85.0 L 854.0 71.0 L 856.0 67.0 L 854.0 62.0 L 865.0 52.0 L 865.0 49.0 L 874.0 42.0 Z M 161.0 206.0 L 163.0 212.0 L 153.0 235.0 L 122.0 277.0 L 121.0 274.0 L 140.0 223.0 L 140.0 211.0 L 145.0 208.0 Z M 371.0 230.0 L 373.0 232.0 L 372.0 239.0 L 361.0 272.0 L 362.0 282.0 L 352.0 291.0 L 349.0 299.0 L 336.0 309.0 L 334.0 303.0 L 345.0 289.0 L 353.0 263.0 L 358.0 257.0 L 366.0 232.0 Z M 680.0 146.0 L 683.0 150.0 L 669.0 169.0 L 665.0 170.0 L 660.0 158.0 L 673.0 152.0 L 676.0 147.0 Z M 308.0 255.0 L 304.0 277.0 L 294.0 266.0 Z M 576.0 193.0 L 578.0 196.0 L 576.0 202.0 L 572.0 198.0 Z M 378.0 198.0 L 382.0 195.0 L 385.0 196.0 L 380.0 199.0 Z" fill="#050505"/>
    <path id="DirtBike-white-wordmark" d="M 191.0 172.0 L 189.0 174.0 L 176.0 167.0 L 155.0 164.0 L 153.0 162.0 L 172.0 162.0 L 154.0 159.0 L 141.0 160.0 L 123.0 165.0 L 116.0 164.0 L 103.0 169.0 L 99.0 169.0 L 88.0 174.0 L 84.0 174.0 L 61.0 184.0 L 56.0 189.0 L 48.0 191.0 L 42.0 196.0 L 39.0 196.0 L 40.0 198.0 L 37.0 202.0 L 42.0 199.0 L 46.0 200.0 L 53.0 196.0 L 55.0 197.0 L 53.0 200.0 L 59.0 199.0 L 66.0 195.0 L 67.0 197.0 L 27.0 222.0 L 35.0 222.0 L 21.0 233.0 L 27.0 234.0 L 19.0 240.0 L 43.0 225.0 L 45.0 227.0 L 54.0 222.0 L 56.0 223.0 L 53.0 227.0 L 45.0 232.0 L 43.0 231.0 L 34.0 237.0 L 84.0 213.0 L 85.0 214.0 L 83.0 225.0 L 80.0 229.0 L 71.0 256.0 L 73.0 260.0 L 57.0 305.0 L 58.0 309.0 L 54.0 318.0 L 53.0 328.0 L 48.0 340.0 L 50.0 342.0 L 48.0 348.0 L 56.0 327.0 L 58.0 325.0 L 59.0 330.0 L 71.0 297.0 L 72.0 303.0 L 68.0 311.0 L 67.0 321.0 L 65.0 324.0 L 64.0 332.0 L 57.0 353.0 L 37.0 372.0 L 24.0 380.0 L 31.0 380.0 L 25.0 388.0 L 30.0 384.0 L 37.0 382.0 L 44.0 376.0 L 48.0 374.0 L 50.0 375.0 L 46.0 380.0 L 49.0 380.0 L 50.0 382.0 L 42.0 393.0 L 43.0 396.0 L 39.0 402.0 L 47.0 394.0 L 75.0 373.0 L 76.0 374.0 L 67.0 385.0 L 120.0 333.0 L 116.0 337.0 L 115.0 336.0 L 120.0 330.0 L 122.0 331.0 L 148.0 305.0 L 149.0 307.0 L 131.0 328.0 L 105.0 355.0 L 153.0 307.0 L 182.0 269.0 L 191.0 253.0 L 187.0 258.0 L 185.0 257.0 L 190.0 248.0 L 193.0 247.0 L 198.0 237.0 L 204.0 221.0 L 206.0 211.0 L 203.0 188.0 L 197.0 178.0 Z M 491.0 126.0 L 484.0 122.0 L 481.0 123.0 L 475.0 121.0 L 468.0 121.0 L 464.0 119.0 L 457.0 119.0 L 443.0 122.0 L 439.0 121.0 L 418.0 127.0 L 414.0 130.0 L 396.0 137.0 L 400.0 136.0 L 402.0 138.0 L 385.0 147.0 L 387.0 146.0 L 389.0 148.0 L 398.0 146.0 L 399.0 148.0 L 420.0 141.0 L 421.0 143.0 L 419.0 145.0 L 411.0 147.0 L 406.0 150.0 L 419.0 147.0 L 420.0 148.0 L 416.0 158.0 L 413.0 155.0 L 409.0 162.0 L 394.0 164.0 L 393.0 163.0 L 395.0 161.0 L 399.0 160.0 L 369.0 166.0 L 368.0 164.0 L 371.0 157.0 L 368.0 154.0 L 368.0 152.0 L 363.0 149.0 L 357.0 152.0 L 354.0 150.0 L 350.0 157.0 L 348.0 165.0 L 343.0 173.0 L 327.0 177.0 L 304.0 186.0 L 308.0 185.0 L 309.0 187.0 L 299.0 192.0 L 302.0 191.0 L 305.0 194.0 L 317.0 194.0 L 322.0 192.0 L 323.0 194.0 L 317.0 197.0 L 318.0 198.0 L 325.0 197.0 L 335.0 193.0 L 337.0 194.0 L 321.0 247.0 L 321.0 245.0 L 323.0 243.0 L 324.0 244.0 L 316.0 271.0 L 316.0 276.0 L 317.0 272.0 L 320.0 272.0 L 317.0 284.0 L 316.0 297.0 L 316.0 294.0 L 323.0 279.0 L 325.0 277.0 L 326.0 278.0 L 325.0 284.0 L 337.0 248.0 L 339.0 246.0 L 340.0 248.0 L 339.0 250.0 L 360.0 188.0 L 363.0 185.0 L 394.0 175.0 L 380.0 178.0 L 379.0 177.0 L 381.0 175.0 L 392.0 172.0 L 394.0 170.0 L 401.0 169.0 L 403.0 166.0 L 406.0 165.0 L 409.0 166.0 L 400.0 188.0 L 401.0 189.0 L 396.0 202.0 L 393.0 205.0 L 380.0 211.0 L 382.0 213.0 L 380.0 215.0 L 371.0 219.0 L 375.0 219.0 L 377.0 221.0 L 383.0 219.0 L 389.0 220.0 L 388.0 222.0 L 381.0 225.0 L 386.0 224.0 L 388.0 227.0 L 386.0 229.0 L 372.0 277.0 L 376.0 265.0 L 378.0 264.0 L 379.0 266.0 L 386.0 248.0 L 389.0 245.0 L 390.0 247.0 L 386.0 256.0 L 387.0 258.0 L 384.0 263.0 L 378.0 282.0 L 360.0 299.0 L 369.0 294.0 L 371.0 295.0 L 347.0 315.0 L 348.0 317.0 L 346.0 319.0 L 344.0 317.0 L 340.0 321.0 L 341.0 322.0 L 330.0 331.0 L 338.0 327.0 L 343.0 322.0 L 344.0 325.0 L 355.0 317.0 L 358.0 317.0 L 367.0 311.0 L 367.0 314.0 L 348.0 330.0 L 364.0 320.0 L 365.0 323.0 L 374.0 313.0 L 392.0 299.0 L 393.0 300.0 L 383.0 311.0 L 396.0 301.0 L 431.0 270.0 L 421.0 277.0 L 420.0 276.0 L 423.0 273.0 L 437.0 264.0 L 454.0 249.0 L 455.0 251.0 L 427.0 278.0 L 451.0 258.0 L 470.0 238.0 L 480.0 221.0 L 479.0 218.0 L 481.0 212.0 L 477.0 203.0 L 465.0 196.0 L 447.0 193.0 L 464.0 178.0 L 461.0 178.0 L 483.0 158.0 L 484.0 159.0 L 466.0 179.0 L 482.0 163.0 L 490.0 152.0 L 495.0 141.0 L 495.0 132.0 Z M 308.0 202.0 L 303.0 200.0 L 299.0 201.0 L 278.0 199.0 L 260.0 204.0 L 241.0 212.0 L 244.0 212.0 L 244.0 214.0 L 232.0 221.0 L 236.0 220.0 L 238.0 222.0 L 236.0 224.0 L 239.0 224.0 L 253.0 218.0 L 254.0 219.0 L 249.0 230.0 L 246.0 231.0 L 243.0 240.0 L 244.0 242.0 L 241.0 247.0 L 238.0 258.0 L 232.0 262.0 L 232.0 265.0 L 227.0 269.0 L 232.0 270.0 L 234.0 272.0 L 232.0 273.0 L 233.0 276.0 L 225.0 301.0 L 226.0 303.0 L 224.0 310.0 L 226.0 304.0 L 229.0 301.0 L 230.0 302.0 L 227.0 312.0 L 228.0 318.0 L 225.0 330.0 L 233.0 312.0 L 235.0 310.0 L 236.0 315.0 L 250.0 277.0 L 290.0 303.0 L 273.0 289.0 L 275.0 288.0 L 315.0 315.0 L 311.0 312.0 L 311.0 308.0 L 332.0 320.0 L 315.0 305.0 L 316.0 303.0 L 321.0 306.0 L 315.0 299.0 L 310.0 297.0 L 307.0 293.0 L 294.0 284.0 L 290.0 280.0 L 292.0 279.0 L 293.0 280.0 L 271.0 261.0 L 274.0 257.0 L 286.0 248.0 L 284.0 249.0 L 284.0 246.0 L 300.0 233.0 L 300.0 236.0 L 290.0 246.0 L 297.0 240.0 L 307.0 228.0 L 303.0 232.0 L 302.0 230.0 L 308.0 223.0 L 309.0 225.0 L 308.0 226.0 L 313.0 216.0 L 313.0 209.0 Z M 166.0 192.0 L 175.0 201.0 L 173.0 203.0 L 175.0 209.0 L 174.0 215.0 L 163.0 240.0 L 152.0 257.0 L 139.0 273.0 L 145.0 267.0 L 162.0 243.0 L 163.0 245.0 L 161.0 249.0 L 135.0 282.0 L 133.0 281.0 L 81.0 333.0 L 80.0 330.0 L 87.0 313.0 L 122.0 214.0 L 122.0 203.0 L 112.0 225.0 L 111.0 222.0 L 118.0 202.0 L 120.0 200.0 L 123.0 201.0 L 124.0 199.0 L 129.0 197.0 L 152.0 193.0 L 138.0 194.0 L 137.0 193.0 L 139.0 191.0 L 160.0 190.0 Z M 570.0 91.0 L 561.0 105.0 L 560.0 102.0 L 542.0 140.0 L 542.0 134.0 L 549.0 116.0 L 531.0 163.0 L 530.0 176.0 L 525.0 186.0 L 517.0 192.0 L 517.0 197.0 L 519.0 199.0 L 517.0 202.0 L 520.0 204.0 L 515.0 219.0 L 512.0 240.0 L 509.0 248.0 L 513.0 241.0 L 514.0 244.0 L 509.0 273.0 L 519.0 251.0 L 520.0 256.0 L 525.0 238.0 L 528.0 236.0 L 535.0 212.0 L 537.0 210.0 L 562.0 232.0 L 568.0 236.0 L 555.0 224.0 L 556.0 222.0 L 582.0 245.0 L 587.0 248.0 L 583.0 244.0 L 584.0 242.0 L 601.0 254.0 L 588.0 239.0 L 590.0 238.0 L 594.0 241.0 L 579.0 223.0 L 568.0 213.0 L 568.0 210.0 L 551.0 191.0 L 570.0 170.0 L 573.0 170.0 L 588.0 156.0 L 581.0 160.0 L 579.0 159.0 L 593.0 146.0 L 590.0 146.0 L 605.0 131.0 L 595.0 139.0 L 595.0 136.0 L 582.0 146.0 L 580.0 145.0 L 582.0 143.0 L 578.0 145.0 L 552.0 168.0 L 550.0 167.0 L 571.0 104.0 L 567.0 109.0 L 566.0 106.0 L 569.0 97.0 L 568.0 94.0 Z M 680.0 128.0 L 667.0 130.0 L 663.0 128.0 L 665.0 126.0 L 635.0 132.0 L 628.0 135.0 L 613.0 138.0 L 609.0 143.0 L 597.0 149.0 L 599.0 148.0 L 600.0 150.0 L 595.0 153.0 L 595.0 156.0 L 598.0 157.0 L 596.0 159.0 L 601.0 159.0 L 602.0 161.0 L 596.0 176.0 L 589.0 180.0 L 585.0 186.0 L 591.0 193.0 L 584.0 214.0 L 585.0 221.0 L 589.0 226.0 L 593.0 226.0 L 594.0 228.0 L 601.0 228.0 L 643.0 208.0 L 627.0 215.0 L 624.0 214.0 L 645.0 203.0 L 648.0 200.0 L 650.0 200.0 L 653.0 196.0 L 660.0 194.0 L 663.0 191.0 L 646.0 196.0 L 645.0 195.0 L 650.0 191.0 L 638.0 196.0 L 622.0 200.0 L 606.0 207.0 L 603.0 206.0 L 608.0 191.0 L 612.0 186.0 L 638.0 177.0 L 629.0 180.0 L 627.0 179.0 L 628.0 177.0 L 637.0 174.0 L 652.0 165.0 L 648.0 167.0 L 640.0 167.0 L 639.0 165.0 L 642.0 164.0 L 638.0 164.0 L 619.0 170.0 L 618.0 166.0 L 623.0 154.0 L 657.0 141.0 L 645.0 145.0 L 643.0 143.0 L 645.0 141.0 L 665.0 135.0 L 668.0 132.0 L 672.0 132.0 L 675.0 129.0 Z M 224.0 224.0 L 221.0 224.0 L 217.0 227.0 L 211.0 226.0 L 205.0 242.0 L 205.0 247.0 L 201.0 254.0 L 192.0 285.0 L 194.0 282.0 L 195.0 286.0 L 187.0 310.0 L 186.0 319.0 L 187.0 315.0 L 189.0 313.0 L 190.0 314.0 L 188.0 336.0 L 191.0 332.0 L 191.0 329.0 L 195.0 321.0 L 197.0 322.0 L 197.0 325.0 L 207.0 293.0 L 209.0 295.0 L 208.0 298.0 L 231.0 231.0 L 229.0 231.0 L 228.0 226.0 Z M 511.0 167.0 L 504.0 170.0 L 501.0 169.0 L 499.0 171.0 L 493.0 188.0 L 484.0 221.0 L 485.0 220.0 L 487.0 222.0 L 479.0 247.0 L 479.0 250.0 L 481.0 246.0 L 483.0 247.0 L 480.0 267.0 L 488.0 252.0 L 489.0 256.0 L 498.0 226.0 L 502.0 221.0 L 517.0 173.0 Z M 452.0 218.0 L 448.0 225.0 L 433.0 240.0 L 395.0 271.0 L 393.0 270.0 L 414.0 218.0 L 432.0 215.0 L 446.0 215.0 Z M 468.0 140.0 L 471.0 144.0 L 467.0 151.0 L 452.0 167.0 L 442.0 174.0 L 448.0 170.0 L 450.0 171.0 L 434.0 184.0 L 432.0 183.0 L 433.0 182.0 L 427.0 186.0 L 427.0 180.0 L 439.0 151.0 L 434.0 150.0 L 436.0 145.0 L 438.0 143.0 L 457.0 140.0 L 453.0 140.0 L 453.0 138.0 L 463.0 138.0 Z M 290.0 215.0 L 292.0 217.0 L 290.0 223.0 L 272.0 242.0 L 261.0 249.0 L 260.0 247.0 L 268.0 227.0 L 268.0 224.0 L 266.0 224.0 L 267.0 219.0 L 279.0 215.0 Z M 233.0 203.0 L 227.0 200.0 L 224.0 201.0 L 218.0 208.0 L 219.0 215.0 L 230.0 215.0 L 233.0 211.0 Z M 143.0 168.0 L 114.0 174.0 L 104.0 178.0 L 100.0 177.0 L 104.0 174.0 L 124.0 168.0 Z M 518.0 148.0 L 513.0 146.0 L 507.0 150.0 L 505.0 155.0 L 508.0 158.0 L 508.0 160.0 L 512.0 160.0 L 518.0 156.0 Z M 115.0 305.0 L 115.0 308.0 L 93.0 330.0 L 85.0 336.0 L 84.0 335.0 L 86.0 332.0 Z M 200.0 204.0 L 202.0 207.0 L 201.0 218.0 L 197.0 230.0 L 190.0 242.0 L 189.0 239.0 L 196.0 223.0 Z M 77.0 365.0 L 58.0 381.0 L 56.0 380.0 L 56.0 378.0 L 64.0 370.0 L 69.0 369.0 L 75.0 364.0 Z M 463.0 197.0 L 462.0 199.0 L 441.0 198.0 L 443.0 196.0 L 456.0 195.0 Z M 434.0 127.0 L 435.0 125.0 L 441.0 123.0 L 451.0 124.0 L 436.0 128.0 Z M 98.0 258.0 L 98.0 266.0 L 95.0 274.0 L 93.0 275.0 L 92.0 274.0 L 94.0 266.0 Z M 93.0 277.0 L 94.0 280.0 L 88.0 294.0 L 87.0 290.0 L 91.0 278.0 Z M 421.0 253.0 L 411.0 262.0 L 408.0 262.0 L 419.0 252.0 Z M 528.0 219.0 L 528.0 226.0 L 526.0 232.0 L 524.0 233.0 L 524.0 228.0 L 526.0 221.0 Z M 246.0 277.0 L 246.0 284.0 L 242.0 291.0 L 241.0 289.0 Z M 420.0 215.0 L 425.0 212.0 L 432.0 213.0 L 423.0 216.0 Z M 174.0 217.0 L 175.0 222.0 L 171.0 229.0 L 170.0 226.0 Z M 384.0 301.0 L 376.0 308.0 L 374.0 307.0 L 382.0 300.0 Z M 399.0 292.0 L 400.0 294.0 L 394.0 298.0 L 393.0 297.0 Z M 472.0 224.0 L 473.0 227.0 L 469.0 231.0 L 468.0 229.0 Z M 562.0 208.0 L 564.0 207.0 L 569.0 212.0 L 567.0 213.0 Z M 490.0 144.0 L 491.0 147.0 L 488.0 150.0 L 487.0 148.0 Z M 618.0 156.0 L 619.0 159.0 L 617.0 161.0 L 616.0 158.0 Z M 98.0 209.0 L 99.0 210.0 L 96.0 213.0 L 95.0 212.0 Z M 405.0 228.0 L 406.0 231.0 L 404.0 233.0 L 403.0 231.0 Z M 576.0 224.0 L 578.0 223.0 L 580.0 226.0 L 579.0 227.0 Z M 404.0 233.0 L 405.0 234.0 L 403.0 237.0 L 402.0 234.0 Z M 238.0 301.0 L 239.0 303.0 L 237.0 305.0 L 236.0 303.0 Z M 563.0 116.0 L 565.0 114.0 L 566.0 115.0 L 565.0 117.0 Z M 566.0 158.0 L 567.0 156.0 L 569.0 157.0 L 567.0 159.0 Z M 459.0 180.0 L 460.0 178.0 L 462.0 179.0 L 460.0 181.0 Z M 623.0 180.0 L 625.0 178.0 L 626.0 179.0 L 625.0 181.0 Z M 124.0 322.0 L 126.0 320.0 L 127.0 321.0 L 126.0 323.0 Z M 81.0 338.0 L 82.0 336.0 L 84.0 337.0 L 82.0 339.0 Z M 76.0 364.0 L 78.0 362.0 L 79.0 363.0 L 78.0 365.0 Z" fill="#ffffff"/>
    <path id="X-orange-mark" d="M 853.0 20.0 L 843.0 22.0 L 841.0 20.0 L 835.0 21.0 L 834.0 19.0 L 832.0 19.0 L 815.0 27.0 L 810.0 27.0 L 812.0 23.0 L 804.0 28.0 L 769.0 63.0 L 768.0 62.0 L 737.0 97.0 L 750.0 87.0 L 751.0 89.0 L 727.0 115.0 L 724.0 113.0 L 713.0 96.0 L 701.0 82.0 L 700.0 78.0 L 691.0 68.0 L 689.0 68.0 L 689.0 73.0 L 674.0 59.0 L 673.0 63.0 L 669.0 60.0 L 671.0 63.0 L 667.0 67.0 L 647.0 55.0 L 652.0 60.0 L 652.0 63.0 L 655.0 68.0 L 654.0 71.0 L 656.0 74.0 L 654.0 75.0 L 652.0 73.0 L 654.0 77.0 L 653.0 81.0 L 645.0 76.0 L 646.0 79.0 L 659.0 95.0 L 659.0 99.0 L 662.0 102.0 L 661.0 100.0 L 663.0 99.0 L 669.0 107.0 L 669.0 111.0 L 676.0 119.0 L 679.0 125.0 L 685.0 127.0 L 681.0 128.0 L 697.0 151.0 L 684.0 166.0 L 677.0 177.0 L 672.0 180.0 L 653.0 205.0 L 639.0 221.0 L 632.0 234.0 L 627.0 239.0 L 626.0 237.0 L 629.0 232.0 L 623.0 238.0 L 553.0 327.0 L 554.0 328.0 L 557.0 323.0 L 561.0 323.0 L 568.0 315.0 L 570.0 316.0 L 531.0 365.0 L 534.0 362.0 L 537.0 363.0 L 541.0 358.0 L 542.0 359.0 L 540.0 365.0 L 536.0 369.0 L 537.0 371.0 L 529.0 383.0 L 577.0 330.0 L 578.0 332.0 L 563.0 350.0 L 560.0 355.0 L 562.0 357.0 L 556.0 365.0 L 569.0 352.0 L 592.0 325.0 L 594.0 326.0 L 599.0 321.0 L 607.0 309.0 L 623.0 292.0 L 622.0 289.0 L 625.0 289.0 L 633.0 282.0 L 635.0 278.0 L 690.0 216.0 L 691.0 218.0 L 628.0 297.0 L 646.0 277.0 L 646.0 275.0 L 648.0 273.0 L 649.0 274.0 L 685.0 236.0 L 723.0 192.0 L 732.0 205.0 L 736.0 208.0 L 763.0 242.0 L 769.0 245.0 L 764.0 239.0 L 766.0 237.0 L 772.0 245.0 L 779.0 251.0 L 779.0 256.0 L 781.0 258.0 L 784.0 257.0 L 798.0 272.0 L 793.0 265.0 L 795.0 264.0 L 780.0 243.0 L 782.0 242.0 L 798.0 261.0 L 800.0 259.0 L 809.0 269.0 L 811.0 267.0 L 827.0 283.0 L 821.0 275.0 L 822.0 273.0 L 815.0 264.0 L 813.0 259.0 L 815.0 258.0 L 820.0 262.0 L 817.0 256.0 L 818.0 254.0 L 829.0 264.0 L 830.0 263.0 L 792.0 214.0 L 787.0 213.0 L 787.0 209.0 L 779.0 201.0 L 779.0 198.0 L 772.0 191.0 L 757.0 170.0 L 758.0 167.0 L 788.0 206.0 L 800.0 218.0 L 773.0 183.0 L 770.0 177.0 L 752.0 154.0 L 752.0 152.0 L 767.0 132.0 L 768.0 134.0 L 783.0 116.0 L 802.0 96.0 L 802.0 94.0 L 810.0 86.0 L 809.0 84.0 L 822.0 71.0 L 824.0 73.0 L 823.0 74.0 L 836.0 62.0 L 838.0 57.0 L 829.0 63.0 L 827.0 62.0 L 842.0 46.0 L 847.0 43.0 L 846.0 41.0 L 860.0 29.0 L 854.0 31.0 L 852.0 29.0 L 853.0 27.0 L 851.0 23.0 Z M 795.0 93.0 L 796.0 95.0 L 784.0 109.0 L 768.0 132.0 L 766.0 126.0 L 767.0 123.0 Z M 765.0 127.0 L 766.0 128.0 L 750.0 146.0 L 749.0 144.0 Z M 688.0 128.0 L 699.0 143.0 L 698.0 145.0 L 687.0 131.0 Z M 674.0 179.0 L 675.0 181.0 L 668.0 190.0 L 668.0 186.0 Z M 645.0 216.0 L 646.0 218.0 L 643.0 221.0 L 642.0 219.0 Z M 624.0 240.0 L 626.0 238.0 L 627.0 239.0 L 626.0 241.0 Z" fill="url(#orangeXGradient)"/>
  </g>
</svg>
